<svg width="52" height="48" viewBox="0 0 52 48" fill="none" xmlns="http://www.w3.org/2000/svg">
<path d="M24 36C24 42.6274 18.6274 48 12 48C5.37258 48 0 42.6274 0 36C0 29.3726 5.37258 24 12 24C18.6274 24 24 29.3726 24 36Z" fill="#FF5938"/>
<path d="M52 36C52 42.6274 46.6274 48 40 48C33.3726 48 28 42.6274 28 36C28 29.3726 33.3726 24 40 24C46.6274 24 52 29.3726 52 36Z" fill="#FF5938"/>
<path d="M38 12C38 18.6274 32.6274 24 26 24C19.3726 24 14 18.6274 14 12C14 5.37264 19.3726 0 26 0C32.6274 0 38 5.37264 38 12Z" fill="#FF5938"/>
</svg>
